<?xml version="1.0" standalone="no"?>
<!DOCTYPE svg PUBLIC "-//W3C//DTD SVG 20010904//EN"
 "http://www.w3.org/TR/2001/REC-SVG-20010904/DTD/svg10.dtd">
<svg version="1.0" xmlns="http://www.w3.org/2000/svg"
 width="512.000000pt" height="512.000000pt" viewBox="0 0 512.000000 512.000000"
 preserveAspectRatio="xMidYMid meet">
<metadata>
Created by potrace 1.14, written by Peter Selinger 2001-2017
</metadata>
<g transform="translate(0.000000,512.000000) scale(0.100000,-0.100000)"
fill="#000000" stroke="none">
<path d="M2355 5114 c-16 -2 -70 -9 -120 -15 -978 -119 -1810 -813 -2114
-1762 -87 -273 -116 -470 -116 -782 1 -239 11 -347 50 -520 l13 -60 1 113 1
112 60 0 c53 0 62 3 70 23 13 32 200 646 200 658 0 5 -36 9 -80 9 l-80 0 0
130 0 130 380 0 379 0 11 -37 c5 -21 65 -234 133 -473 l124 -435 62 -3 62 -3
-3 -132 -3 -132 -338 -3 -337 -2 0 135 0 135 45 0 c51 0 53 4 32 85 l-13 50
-139 0 -139 0 -13 -50 c-22 -86 -22 -85 57 -85 l71 0 -3 -132 -3 -133 -262 -3
c-145 -1 -263 -6 -263 -11 0 -5 18 -66 41 -137 201 -628 624 -1144 1204 -1467
260 -145 574 -248 910 -299 120 -18 530 -18 650 0 592 89 1085 332 1485 732
400 400 643 893 732 1485 18 120 18 530 0 650 -89 592 -332 1085 -732 1485
-391 391 -875 634 -1447 726 -93 14 -498 28 -568 18z m2220 -1953 c28 -12 62
-34 77 -48 31 -30 32 -30 45 12 l10 30 131 3 132 3 0 -226 0 -225 -115 0
c-101 0 -116 2 -121 18 -39 130 -157 207 -279 182 -144 -30 -227 -179 -212
-379 8 -103 30 -162 84 -221 36 -40 56 -53 101 -66 59 -17 143 -15 195 5 25
10 27 15 27 65 l0 55 -67 3 -68 3 0 110 0 110 240 0 240 0 3 -273 2 -273 -52
-23 c-161 -70 -291 -98 -463 -99 -156 0 -234 16 -355 75 -154 74 -264 212
-307 384 -23 95 -23 287 1 374 57 210 201 354 410 411 100 27 269 22 341 -10z
m-2055 -140 l0 -130 -45 -3 c-25 -2 -45 -6 -45 -10 0 -5 0 -51 0 -103 l0 -96
143 3 142 3 0 100 0 100 -47 3 -48 3 0 130 0 129 305 0 305 0 0 -130 0 -130
-60 0 -60 0 0 -345 0 -345 60 0 61 0 -3 -132 -3 -133 -300 0 -300 0 -3 133 -3
132 51 0 51 0 -3 111 -3 110 -142 0 c-79 0 -143 -2 -143 -5 0 -3 0 -53 0 -111
l0 -105 45 0 45 0 0 -135 0 -135 -299 0 -300 0 -3 135 -3 134 60 3 60 3 0 340
0 340 -60 5 -60 5 0 128 0 127 303 0 302 0 0 -129z m-770 -749 c61 -38 85 -82
85 -158 0 -117 -82 -188 -216 -188 -87 0 -153 37 -186 104 -56 110 -5 228 114
267 58 19 150 8 203 -25z m1847 23 c57 -17 118 -75 129 -122 3 -16 7 -33 9
-40 8 -24 -23 -114 -46 -139 -84 -90 -253 -92 -336 -2 -30 32 -43 71 -43 129
0 139 134 220 287 174z"/>
<path d="M592 2707 c-29 -96 -52 -178 -52 -181 0 -3 43 -6 95 -6 75 0 95 3 95
14 0 24 -72 331 -80 339 -4 4 -30 -71 -58 -166z"/>
</g>
</svg>
